<svg width="45" height="45" viewBox="0 0 45 45" fill="none" xmlns="http://www.w3.org/2000/svg">
<path d="M41.6854 19.9889C43.2373 19.9889 43.8851 17.995 42.6245 17.0759L23.4443 3.12394C23.1704 2.92325 22.8397 2.81506 22.5001 2.81506C22.1605 2.81506 21.8298 2.92325 21.5559 3.12394L2.37566 17.0759C1.11506 17.99 1.76294 19.9889 3.31986 19.9889H6.42867V38.7724H2.8126C2.59162 38.7724 2.41082 38.9532 2.41082 39.1742V41.7858C2.41082 42.0068 2.59162 42.1876 2.8126 42.1876H42.1876C42.4086 42.1876 42.5894 42.0068 42.5894 41.7858V39.1742C42.5894 38.9532 42.4086 38.7724 42.1876 38.7724H38.5715V19.9889H41.6854ZM15.9209 38.7724H10.0447V19.9889H15.9209V38.7724ZM25.413 38.7724H19.5369V19.9889H25.413V38.7724ZM34.9555 38.7724H29.0291V19.9889H34.9555V38.7724Z" fill="#222222"/>
</svg>
