<svg width="45" height="45" viewBox="0 0 45 45" fill="none" xmlns="http://www.w3.org/2000/svg">
<g clip-path="url(#clip0_80_76)">
<path d="M22.5 0C10.0748 0 0 10.0748 0 22.5C0 34.9252 10.0748 45 22.5 45C34.9252 45 45 34.9252 45 22.5C45 10.0748 34.9252 0 22.5 0ZM34.7394 29.5915L22.5 36.6629L10.2606 29.5915V15.4587L15.7852 12.2645L15.7651 12.2545H15.7751L22.5 8.38728L29.2299 12.2545H29.2199L29.2048 12.2645L34.7344 15.4587V29.5915H34.7394ZM12.2494 23.7405L16.649 26.2466V30.9877L21.5056 33.7952V23.1429L12.2494 17.7991V23.7405ZM22.49 16.1166L17.779 13.4096L13.2037 16.0513L22.505 21.4252L31.8064 16.0564L27.216 13.4046L22.49 16.1166ZM23.4944 33.7952L28.3811 30.9727V26.2466L32.7506 23.7606V17.8041L23.4944 23.1529V33.7952Z" fill="#FBE0BA"/>
</g>
<defs>
<clipPath id="clip0_80_76">
<rect width="45" height="45" fill="white"/>
</clipPath>
</defs>
</svg>
