<svg width="50" height="50" viewBox="0 0 50 50" fill="none" xmlns="http://www.w3.org/2000/svg">
<g clip-path="url(#clip0_47_99)">
<path d="M25.0061 17.8127C21.0311 17.8127 17.8248 21.0189 17.8248 24.9939C17.8248 28.9689 21.0311 32.1752 25.0061 32.1752C28.9811 32.1752 32.1873 28.9689 32.1873 24.9939C32.1873 21.0189 28.9811 17.8127 25.0061 17.8127ZM25.0061 29.6627C22.4373 29.6627 20.3373 27.5689 20.3373 24.9939C20.3373 22.4189 22.4311 20.3252 25.0061 20.3252C27.5811 20.3252 29.6748 22.4189 29.6748 24.9939C29.6748 27.5689 27.5748 29.6627 25.0061 29.6627ZM34.1561 17.5189C34.1561 18.4502 33.4061 19.1939 32.4811 19.1939C31.5498 19.1939 30.8061 18.4439 30.8061 17.5189C30.8061 16.5939 31.5561 15.8439 32.4811 15.8439C33.4061 15.8439 34.1561 16.5939 34.1561 17.5189ZM38.9123 19.2189C38.8061 16.9752 38.2936 14.9877 36.6498 13.3502C35.0123 11.7127 33.0248 11.2002 30.7811 11.0877C28.4686 10.9564 21.5373 10.9564 19.2248 11.0877C16.9873 11.1939 14.9998 11.7064 13.3561 13.3439C11.7123 14.9814 11.2061 16.9689 11.0936 19.2127C10.9623 21.5252 10.9623 28.4564 11.0936 30.7689C11.1998 33.0127 11.7123 35.0002 13.3561 36.6377C14.9998 38.2752 16.9811 38.7877 19.2248 38.9002C21.5373 39.0314 28.4686 39.0314 30.7811 38.9002C33.0248 38.7939 35.0123 38.2814 36.6498 36.6377C38.2873 35.0002 38.7998 33.0127 38.9123 30.7689C39.0436 28.4564 39.0436 21.5314 38.9123 19.2189ZM35.9248 33.2502C35.4373 34.4752 34.4936 35.4189 33.2623 35.9127C31.4186 36.6439 27.0436 36.4752 25.0061 36.4752C22.9686 36.4752 18.5873 36.6377 16.7498 35.9127C15.5248 35.4252 14.5811 34.4814 14.0873 33.2502C13.3561 31.4064 13.5248 27.0314 13.5248 24.9939C13.5248 22.9564 13.3623 18.5752 14.0873 16.7377C14.5748 15.5127 15.5186 14.5689 16.7498 14.0752C18.5936 13.3439 22.9686 13.5127 25.0061 13.5127C27.0436 13.5127 31.4248 13.3502 33.2623 14.0752C34.4873 14.5627 35.4311 15.5064 35.9248 16.7377C36.6561 18.5814 36.4873 22.9564 36.4873 24.9939C36.4873 27.0314 36.6561 31.4127 35.9248 33.2502Z" fill="white"/>
</g>
<circle cx="25" cy="25" r="24" stroke="white" stroke-width="2"/>
<defs>
<clipPath id="clip0_47_99">
<rect width="28" height="32" fill="white" transform="translate(11 9)"/>
</clipPath>
</defs>
</svg>
