<svg width="50" height="50" viewBox="0 0 50 50" fill="none" xmlns="http://www.w3.org/2000/svg">
<path d="M17.8198 35.9248H12.4295V18.6168H17.8198V35.9248ZM15.1217 16.2558C13.3981 16.2558 12 14.8323 12 13.1136C12 12.2881 12.3289 11.4964 12.9143 10.9127C13.4998 10.3289 14.2938 10.001 15.1217 10.001C15.9497 10.001 16.7437 10.3289 17.3291 10.9127C17.9146 11.4964 18.2435 12.2881 18.2435 13.1136C18.2435 14.8323 16.8448 16.2558 15.1217 16.2558ZM37.9942 35.9248H32.6154V27.4994C32.6154 25.4914 32.5748 22.9163 29.8129 22.9163C27.0104 22.9163 26.5809 25.0979 26.5809 27.3547V35.9248H21.1963V18.6168H26.3662V20.9778H26.4416C27.1612 19.6179 28.9192 18.1828 31.5418 18.1828C36.9971 18.1828 38 21.7648 38 26.4173V35.9248H37.9942Z" fill="white"/>
<circle cx="25" cy="25" r="24" stroke="white" stroke-width="2"/>
</svg>
