<svg width="25" height="33" viewBox="0 0 25 33" fill="none" xmlns="http://www.w3.org/2000/svg">
<path d="M10.957 32.175C7.55859 28.0371 0 18.0082 0 12.375C0 5.54039 5.59635 0 12.5 0C19.401 0 25 5.54039 25 12.375C25 18.0082 17.3828 28.0371 14.043 32.175C13.2422 33.1611 11.7578 33.1611 10.957 32.175ZM12.5 16.5C14.7982 16.5 16.6667 14.6502 16.6667 12.375C16.6667 10.0998 14.7982 8.25 12.5 8.25C10.2018 8.25 8.33333 10.0998 8.33333 12.375C8.33333 14.6502 10.2018 16.5 12.5 16.5Z" fill="white"/>
</svg>
