<svg width="159" height="103" viewBox="0 0 159 103" fill="none" xmlns="http://www.w3.org/2000/svg">
<path d="M11.7954 4.44043C10.1543 4.44045 8.74768 5.00804 7.57533 6.14199C6.44961 7.27596 5.8865 8.61412 5.8865 10.1563C5.88648 11.7438 6.44999 13.1271 7.57533 14.3065C8.74768 15.4404 10.1543 16.008 11.7954 16.008H12.9811V64.3271H18.855V70.79H12.9811V83.297H11.655C10.0139 83.297 8.60711 83.8871 7.43492 85.0665C6.3098 86.2004 5.74609 87.5612 5.74609 89.1487C5.74609 90.6909 6.3095 92.0291 7.43492 93.163C8.60711 94.297 10.0139 94.8646 11.655 94.8646H34.2299C37.6998 94.8646 40.8435 94 43.6569 92.2764C46.4703 90.5074 48.627 88.1731 50.1275 85.2702L61.8752 62.6821C64.2197 58.2823 65.3893 53.9971 65.3893 49.8242C65.3893 45.3337 64.2896 41.0222 62.0858 36.8946L50.4083 14.0348C49.0485 11.404 46.9151 9.15997 44.0079 7.30026C41.1476 5.44055 38.1944 4.48497 35.1465 4.44043H11.7954ZM24.7951 16.008H33.5279C36.3881 16.008 38.4515 17.1658 39.7176 19.4791L41.4415 22.7954H49.64V29.2583H44.8036L51.8163 42.7463C52.9881 44.9689 53.5753 47.3294 53.5753 49.8242C53.5753 51.8199 52.8487 54.2895 51.3951 57.2378L39.7176 79.6901C38.4047 82.1849 36.4346 83.4328 33.8087 83.4328H24.7951V38.9961H24.7561V32.5332H24.7951V16.008Z" fill="#FBE0BA"/>
<path d="M15.5084 0C13.7061 0 12.1623 0.626008 10.8749 1.87134C9.63911 3.11665 9.01832 4.58438 9.01832 6.27804C9.01832 8.0215 9.63895 9.54053 10.8749 10.8357C12.1623 12.0809 13.7061 12.7032 15.5084 12.7032H16.8111V64.3273H18.8549V70.7902H16.8111V86.6022H15.3524C13.55 86.6022 12.0062 87.2501 10.7188 88.5453C9.48308 89.7906 8.86621 91.284 8.86621 93.0274C8.86621 94.7211 9.48294 96.1926 10.7188 97.4379C12.0062 98.6832 13.55 99.3055 15.3524 99.3055H40.1465C43.9572 99.3055 47.4082 98.3574 50.4979 96.4645C53.5876 94.5218 55.9564 91.9559 57.6042 88.7679L70.5064 63.9613C73.0812 59.1295 74.3677 54.4223 74.3677 49.8395C74.3677 44.908 73.1568 40.1752 70.7365 35.6422L57.9124 10.5376C56.419 7.64843 54.0768 5.18135 50.884 3.13902C47.7428 1.09667 44.5001 0.0496448 41.1528 0H15.5084ZM29.7874 12.7032H39.3743C42.5155 12.7032 44.7821 13.9734 46.1725 16.5138L49.4409 22.7956H49.6398V23.1805L59.4608 42.0674C60.748 44.5082 61.3914 47.0998 61.3914 49.8395C61.3914 52.0313 60.593 54.7472 58.9966 57.9851L46.1725 82.6407C44.7306 85.3805 42.5701 86.7494 39.6863 86.7494H29.7874V38.9963H24.756V32.5334H29.7874V12.7032Z" fill="#4C319D"/>
<path d="M79.0142 22.7959H49.5078V29.2595H79.0142V22.7959Z" fill="#FBE0BA"/>
<path d="M79.3733 22.7959H57.2109V29.2595H79.3733V22.7959Z" fill="#4C319D"/>
<path d="M24.5761 32.5327H0V38.9963H24.5761V32.5327Z" fill="#FCE1BA"/>
<path d="M24.9356 32.5327H6.88184V38.9963H24.9356V32.5327Z" fill="#4C319D"/>
<path d="M41.1008 64.3271H18.6816V70.7907H41.1008V64.3271Z" fill="#FCE1BA"/>
<path d="M41.0846 64.3271H23.6118V70.7907H41.0846V64.3271Z" fill="#4C319D"/>
<path d="M83.4088 85.9097V70.8497H87.3988V85.9097H83.4088ZM83.4088 68.4497V65.0297H87.4288V68.4497H83.4088ZM97.363 92.7797C95.763 92.7797 94.423 92.6597 93.343 92.4197C92.283 92.1797 91.483 91.7397 90.943 91.0997C90.403 90.4797 90.133 89.5797 90.133 88.3997C90.133 87.8797 90.203 87.4097 90.343 86.9897C90.503 86.5897 90.743 86.2097 91.063 85.8497C91.403 85.4897 91.823 85.1197 92.323 84.7397C92.043 84.5397 91.813 84.2497 91.633 83.8697C91.473 83.4697 91.393 83.0397 91.393 82.5797C91.393 82.3397 91.533 81.9897 91.813 81.5297C92.113 81.0497 92.403 80.6297 92.683 80.2697C92.283 80.0897 91.903 79.8297 91.543 79.4897C91.183 79.1297 90.883 78.6497 90.643 78.0497C90.423 77.4497 90.313 76.6797 90.313 75.7397C90.313 73.8397 90.853 72.4997 91.933 71.7197C93.033 70.9197 94.593 70.5197 96.613 70.5197C97.133 70.5197 97.693 70.5597 98.293 70.6397C98.893 70.7197 99.373 70.7997 99.733 70.8797L104.623 70.7897V73.4897L102.343 73.4597C102.523 73.6997 102.683 74.0097 102.823 74.3897C102.983 74.7497 103.063 75.1997 103.063 75.7397C103.063 77.1197 102.823 78.1897 102.343 78.9497C101.883 79.7097 101.183 80.2397 100.243 80.5397C99.303 80.8197 98.113 80.9597 96.673 80.9597C96.513 80.9597 96.293 80.9497 96.013 80.9297C95.733 80.8897 95.503 80.8597 95.323 80.8397C95.243 81.0397 95.163 81.2697 95.083 81.5297C95.003 81.7697 94.963 81.9397 94.963 82.0397C94.963 82.2997 95.043 82.4997 95.203 82.6397C95.383 82.7797 95.733 82.8797 96.253 82.9397C96.793 82.9797 97.603 82.9997 98.683 82.9997C100.103 82.9997 101.233 83.1297 102.073 83.3897C102.933 83.6497 103.543 84.1097 103.903 84.7697C104.263 85.4297 104.443 86.3597 104.443 87.5597C104.443 89.3397 103.813 90.6497 102.553 91.4897C101.313 92.3497 99.583 92.7797 97.363 92.7797ZM97.153 89.8097C98.393 89.8097 99.283 89.6597 99.823 89.3597C100.383 89.0797 100.663 88.6097 100.663 87.9497C100.663 87.4297 100.563 87.0497 100.363 86.8097C100.183 86.5697 99.873 86.4097 99.433 86.3297C98.993 86.2697 98.393 86.2397 97.633 86.2397C97.433 86.2397 97.193 86.2297 96.913 86.2097C96.633 86.2097 96.343 86.1997 96.043 86.1797C95.763 86.1797 95.503 86.1697 95.263 86.1497C95.043 86.1297 94.883 86.1197 94.783 86.1197C94.343 86.4197 94.043 86.6897 93.883 86.9297C93.723 87.1897 93.643 87.5297 93.643 87.9497C93.643 88.4097 93.753 88.7697 93.973 89.0297C94.193 89.3097 94.553 89.5097 95.053 89.6297C95.573 89.7497 96.273 89.8097 97.153 89.8097ZM96.643 78.1397C97.563 78.1397 98.213 77.9597 98.593 77.5997C98.993 77.2197 99.193 76.5997 99.193 75.7397C99.193 74.8797 98.993 74.2597 98.593 73.8797C98.213 73.4997 97.563 73.3097 96.643 73.3097C95.763 73.3097 95.123 73.4997 94.723 73.8797C94.343 74.2597 94.153 74.8797 94.153 75.7397C94.153 76.5997 94.343 77.2197 94.723 77.5997C95.123 77.9597 95.763 78.1397 96.643 78.1397ZM106.729 85.9097V70.8497H110.719V85.9097H106.729ZM106.729 68.4497V65.0297H110.749V68.4497H106.729ZM119.297 85.9097L124.517 65.4197H131.747L136.937 85.9097H132.797L131.657 81.7697H124.487L123.407 85.9097H119.297ZM125.147 78.4397H131.057L128.747 68.7797H127.487L125.147 78.4397ZM138.956 85.9097V70.8497H142.946V72.6197C143.286 72.3597 143.706 72.0897 144.206 71.8097C144.706 71.5097 145.246 71.2397 145.826 70.9997C146.426 70.7397 146.996 70.5697 147.536 70.4897V74.3597C147.016 74.4397 146.466 74.5797 145.886 74.7797C145.306 74.9597 144.756 75.1597 144.236 75.3797C143.736 75.5997 143.306 75.7997 142.946 75.9797V85.9097H138.956ZM154.9 86.2697C153.8 86.2697 152.91 86.1097 152.23 85.7897C151.55 85.4697 151.06 84.9197 150.76 84.1397C150.48 83.3397 150.34 82.2297 150.34 80.8097V74.1797H148.57V70.8497H150.34V66.8597H154.33V70.8497H158.17V74.1797H154.33V79.7597C154.33 80.5397 154.36 81.1497 154.42 81.5897C154.5 82.0297 154.66 82.3397 154.9 82.5197C155.14 82.6997 155.51 82.7897 156.01 82.7897C156.15 82.7897 156.36 82.7797 156.64 82.7597C156.92 82.7397 157.2 82.7197 157.48 82.6997C157.76 82.6797 157.99 82.6597 158.17 82.6397L158.29 85.8497C157.81 85.9297 157.23 86.0197 156.55 86.1197C155.89 86.2197 155.34 86.2697 154.9 86.2697Z" fill="white"/>
</svg>
