<svg width="114" height="74" viewBox="0 0 114 74" fill="none" xmlns="http://www.w3.org/2000/svg">
<path d="M8.17511 3.07772C7.03768 3.07773 6.06276 3.47112 5.25023 4.25704C4.47002 5.04297 4.07974 5.97042 4.07974 7.03929C4.07972 8.13958 4.47028 9.09831 5.25023 9.91568C6.06276 10.7016 7.03768 11.095 8.17511 11.095H8.99689V44.584H13.0679V49.0633H8.99689V57.7317H8.0778C6.94036 57.7317 5.96534 58.1408 5.15292 58.9581C4.37312 59.744 3.98242 60.6872 3.98242 61.7874C3.98242 62.8563 4.37291 63.7838 5.15292 64.5697C5.96534 65.3556 6.94036 65.749 8.0778 65.749H23.724C26.1289 65.749 28.3078 65.1498 30.2577 63.9552C32.2076 62.7292 33.7024 61.1113 34.7423 59.0993L42.8844 43.4439C44.5094 40.3945 45.32 37.4246 45.32 34.5323C45.32 31.4201 44.5578 28.4319 43.0304 25.5711L34.937 9.72741C33.9945 7.90406 32.5159 6.34874 30.501 5.05981C28.5186 3.77088 26.4717 3.10859 24.3593 3.07772H8.17511ZM17.1849 11.095H23.2374C25.2199 11.095 26.65 11.8974 27.5275 13.5007L28.7223 15.7992H34.4044V20.2785H31.0525L35.9128 29.6268C36.725 31.1672 37.132 32.8033 37.132 34.5323C37.132 35.9156 36.6284 37.6272 35.6209 39.6706L27.5275 55.2319C26.6175 56.9609 25.2521 57.8259 23.4321 57.8259H17.1849V27.0276H17.1579V22.5483H17.1849V11.095Z" fill="#FBE0BA"/>
<path d="M10.7486 0C9.49943 0 8.42945 0.433874 7.53718 1.29699C6.6807 2.16009 6.25045 3.17735 6.25045 4.35119C6.25045 5.55955 6.68059 6.61236 7.53718 7.50999C8.42945 8.37308 9.49943 8.80437 10.7486 8.80437H11.6515V44.584H13.068V49.0634H11.6515V60.0224H10.6405C9.3913 60.0224 8.3213 60.4714 7.42905 61.3691C6.57256 62.2322 6.14502 63.2672 6.14502 64.4756C6.14502 65.6494 6.57246 66.6693 7.42905 67.5324C8.3213 68.3955 9.3913 68.8268 10.6405 68.8268H27.8248C30.4659 68.8268 32.8577 68.1697 34.9992 66.8578C37.1406 65.5113 38.7823 63.7329 39.9244 61.5234L48.8667 44.3304C50.6512 40.9815 51.5429 37.7191 51.5429 34.5428C51.5429 31.1249 50.7036 27.8447 49.0262 24.703L40.138 7.30342C39.103 5.30098 37.4796 3.5911 35.2668 2.1756C33.0897 0.76008 30.8422 0.0344079 28.5223 0H10.7486ZM20.6451 8.80437H27.2896C29.4667 8.80437 31.0376 9.6847 32.0013 11.4454L34.2666 15.7992H34.4045V16.0659L41.2112 29.1561C42.1033 30.8478 42.5493 32.644 42.5493 34.5428C42.5493 36.0619 41.9959 37.9443 40.8895 40.1884L32.0013 57.2768C31.002 59.1756 29.5045 60.1244 27.5059 60.1244H20.6451V27.0276H17.1579V22.5483H20.6451V8.80437Z" fill="#06272E"/>
<path d="M54.7633 15.7993H34.313V20.2791H54.7633V15.7993Z" fill="#FBE0BA"/>
<path d="M55.0121 15.7993H39.6519V20.2791H55.0121V15.7993Z" fill="#06272E"/>
<path d="M17.0332 22.5478H0V27.0276H17.0332V22.5478Z" fill="#FCE1BA"/>
<path d="M17.2823 22.5478H4.76953V27.0276H17.2823V22.5478Z" fill="#06272E"/>
<path d="M28.486 44.584H12.9478V49.0638H28.486V44.584Z" fill="#FCE1BA"/>
<path d="M28.4748 44.584H16.3647V49.0638H28.4748V44.584Z" fill="#06272E"/>
<path d="M57.8755 61.5121V50.4681H60.8015V61.5121H57.8755ZM57.8755 48.7081V46.2001H60.8235V48.7081H57.8755ZM68.1086 66.5501C66.9353 66.5501 65.9526 66.4621 65.1606 66.2861C64.3833 66.1101 63.7966 65.7874 63.4006 65.3181C63.0046 64.8634 62.8066 64.2034 62.8066 63.3381C62.8066 62.9568 62.858 62.6121 62.9606 62.3041C63.078 62.0108 63.254 61.7321 63.4886 61.4681C63.738 61.2041 64.046 60.9328 64.4126 60.6541C64.2073 60.5074 64.0386 60.2948 63.9066 60.0161C63.7893 59.7228 63.7306 59.4074 63.7306 59.0701C63.7306 58.8941 63.8333 58.6374 64.0386 58.3001C64.2586 57.9481 64.4713 57.6401 64.6766 57.3761C64.3833 57.2441 64.1046 57.0534 63.8406 56.8041C63.5766 56.5401 63.3566 56.1881 63.1806 55.7481C63.0193 55.3081 62.9386 54.7434 62.9386 54.0541C62.9386 52.6608 63.3346 51.6781 64.1266 51.1061C64.9333 50.5194 66.0773 50.2261 67.5586 50.2261C67.94 50.2261 68.3506 50.2554 68.7906 50.3141C69.2306 50.3728 69.5826 50.4314 69.8466 50.4901L73.4326 50.4241V52.4041L71.7606 52.3821C71.8926 52.5581 72.01 52.7854 72.1126 53.0641C72.23 53.3281 72.2886 53.6581 72.2886 54.0541C72.2886 55.0661 72.1126 55.8508 71.7606 56.4081C71.4233 56.9654 70.91 57.3541 70.2206 57.5741C69.5313 57.7794 68.6586 57.8821 67.6026 57.8821C67.4853 57.8821 67.324 57.8748 67.1186 57.8601C66.9133 57.8308 66.7446 57.8088 66.6126 57.7941C66.554 57.9408 66.4953 58.1094 66.4366 58.3001C66.378 58.4761 66.3486 58.6008 66.3486 58.6741C66.3486 58.8648 66.4073 59.0114 66.5246 59.1141C66.6566 59.2168 66.9133 59.2901 67.2946 59.3341C67.6906 59.3634 68.2846 59.3781 69.0766 59.3781C70.118 59.3781 70.9466 59.4734 71.5626 59.6641C72.1933 59.8548 72.6406 60.1921 72.9046 60.6761C73.1686 61.1601 73.3006 61.8421 73.3006 62.7221C73.3006 64.0274 72.8386 64.9881 71.9146 65.6041C71.0053 66.2348 69.7366 66.5501 68.1086 66.5501ZM67.9546 64.3721C68.864 64.3721 69.5166 64.2621 69.9126 64.0421C70.3233 63.8368 70.5286 63.4921 70.5286 63.0081C70.5286 62.6268 70.4553 62.3481 70.3086 62.1721C70.1766 61.9961 69.9493 61.8788 69.6266 61.8201C69.304 61.7761 68.864 61.7541 68.3066 61.7541C68.16 61.7541 67.984 61.7468 67.7786 61.7321C67.5733 61.7321 67.3606 61.7248 67.1406 61.7101C66.9353 61.7101 66.7446 61.7028 66.5686 61.6881C66.4073 61.6734 66.29 61.6661 66.2166 61.6661C65.894 61.8861 65.674 62.0841 65.5566 62.2601C65.4393 62.4508 65.3806 62.7001 65.3806 63.0081C65.3806 63.3454 65.4613 63.6094 65.6226 63.8001C65.784 64.0054 66.048 64.1521 66.4146 64.2401C66.796 64.3281 67.3093 64.3721 67.9546 64.3721ZM67.5806 55.8141C68.2553 55.8141 68.732 55.6821 69.0106 55.4181C69.304 55.1394 69.4506 54.6848 69.4506 54.0541C69.4506 53.4234 69.304 52.9688 69.0106 52.6901C68.732 52.4114 68.2553 52.2721 67.5806 52.2721C66.9353 52.2721 66.466 52.4114 66.1726 52.6901C65.894 52.9688 65.7546 53.4234 65.7546 54.0541C65.7546 54.6848 65.894 55.1394 66.1726 55.4181C66.466 55.6821 66.9353 55.8141 67.5806 55.8141ZM74.9771 61.5121V50.4681H77.9031V61.5121H74.9771ZM74.9771 48.7081V46.2001H77.9251V48.7081H74.9771ZM84.1932 61.5121L88.0212 46.4861H93.3232L97.1292 61.5121H94.0932L93.2572 58.4761H87.9992L87.2072 61.5121H84.1932ZM88.4832 56.0341H92.8172L91.1232 48.9501H90.1992L88.4832 56.0341ZM98.6099 61.5121V50.4681H101.536V51.7661C101.785 51.5754 102.093 51.3774 102.46 51.1721C102.827 50.9521 103.223 50.7541 103.648 50.5781C104.088 50.3874 104.506 50.2628 104.902 50.2041V53.0421C104.521 53.1008 104.117 53.2034 103.692 53.3501C103.267 53.4821 102.863 53.6288 102.482 53.7901C102.115 53.9514 101.8 54.0981 101.536 54.2301V61.5121H98.6099ZM110.302 61.7761C109.496 61.7761 108.843 61.6588 108.344 61.4241C107.846 61.1894 107.486 60.7861 107.266 60.2141C107.061 59.6274 106.958 58.8134 106.958 57.7721V52.9101H105.66V50.4681H106.958V47.5421H109.884V50.4681H112.7V52.9101H109.884V57.0021C109.884 57.5741 109.906 58.0214 109.95 58.3441C110.009 58.6668 110.126 58.8941 110.302 59.0261C110.478 59.1581 110.75 59.2241 111.116 59.2241C111.219 59.2241 111.373 59.2168 111.578 59.2021C111.784 59.1874 111.989 59.1728 112.194 59.1581C112.4 59.1434 112.568 59.1288 112.7 59.1141L112.788 61.4681C112.436 61.5268 112.011 61.5928 111.512 61.6661C111.028 61.7394 110.625 61.7761 110.302 61.7761Z" fill="black"/>
</svg>
