<svg width="27" height="35" viewBox="0 0 27 35" fill="none" xmlns="http://www.w3.org/2000/svg">
<path d="M22.5 0H4.5C2.63672 0 1.125 1.46973 1.125 3.28125V31.7188C1.125 33.5303 2.63672 35 4.5 35H22.5C24.3633 35 25.875 33.5303 25.875 31.7188V3.28125C25.875 1.46973 24.3633 0 22.5 0ZM16.875 30.5635C16.875 31.2266 16.3687 31.7188 15.75 31.7188H11.1867C10.6313 31.7188 10.125 31.2266 10.125 30.625C10.125 30.0234 10.6313 29.5312 11.25 29.5312H15.75C16.3687 29.5312 16.875 30.0234 16.875 30.5635Z" fill="white"/>
<path d="M1 23.5H26" stroke="#D687DD" stroke-width="2"/>
</svg>
