<svg width="45" height="45" viewBox="0 0 45 45" fill="none" xmlns="http://www.w3.org/2000/svg">
<path d="M12.4605 26.4928C12.6162 26.6485 12.8724 26.6485 13.0281 26.4928L18.1408 21.38L22.465 25.7093C22.6207 25.865 22.8768 25.865 23.0325 25.7093L34.398 14.3337C34.5537 14.178 34.5537 13.9219 34.398 13.7662L32.5498 11.918C32.4743 11.8432 32.3723 11.8013 32.2661 11.8013C32.1598 11.8013 32.0578 11.8432 31.9823 11.918L22.7513 21.1591L18.4271 16.8298C18.3515 16.755 18.2496 16.7131 18.1433 16.7131C18.037 16.7131 17.9351 16.755 17.8595 16.8298L10.6123 24.077C10.5376 24.1525 10.4956 24.2545 10.4956 24.3608C10.4956 24.4671 10.5376 24.569 10.6123 24.6446L12.4605 26.4928Z" fill="#111916"/>
<path d="M42.1877 4.82139H24.3082V1.60711C24.3082 1.38613 24.1274 1.20532 23.9065 1.20532H21.094C20.873 1.20532 20.6922 1.38613 20.6922 1.60711V4.82139H2.81271C1.92376 4.82139 1.20557 5.53959 1.20557 6.42854V32.5446C1.20557 33.4336 1.92376 34.1518 2.81271 34.1518H20.7123V35.7589L12.4355 41.188C12.3915 41.2166 12.3536 41.2536 12.3239 41.2969C12.2943 41.3402 12.2735 41.3889 12.2628 41.4402C12.252 41.4916 12.2516 41.5445 12.2614 41.5961C12.2712 41.6476 12.2911 41.6967 12.32 41.7405L13.8417 44.111V44.116C13.9623 44.3019 14.2134 44.3521 14.3992 44.2316L22.5002 38.9179L30.6012 44.2316C30.787 44.3521 31.0382 44.3019 31.1587 44.116V44.111L32.6805 41.7405C32.7377 41.6517 32.7577 41.5439 32.736 41.4406C32.7144 41.3372 32.653 41.2464 32.5649 41.188L24.3082 35.774V34.1518H42.1877C43.0767 34.1518 43.7949 33.4336 43.7949 32.5446V6.42854C43.7949 5.53959 43.0767 4.82139 42.1877 4.82139ZM40.1788 30.5357H4.82164V8.43747H40.1788V30.5357Z" fill="#111916"/>
</svg>
