<svg width="50" height="50" viewBox="0 0 50 50" fill="none" xmlns="http://www.w3.org/2000/svg">
<path d="M37.9162 19.8897C37.9353 20.1562 37.9353 20.4227 37.9353 20.6892C37.9353 28.8173 31.7488 38.1828 20.4416 38.1828C16.9581 38.1828 13.7221 37.1739 11 35.4227C11.4949 35.4798 11.9708 35.4988 12.4848 35.4988C15.3591 35.4988 18.0051 34.528 20.118 32.872C17.415 32.8148 15.1497 31.0445 14.3693 28.608C14.75 28.665 15.1307 28.7031 15.5305 28.7031C16.0825 28.7031 16.6346 28.627 17.1485 28.4938C14.3312 27.9227 12.2182 25.4481 12.2182 22.4595V22.3834C13.0367 22.8402 13.9886 23.1258 14.9974 23.1638C13.3413 22.0597 12.2563 20.1752 12.2563 18.0432C12.2563 16.9011 12.5608 15.8542 13.0938 14.9404C16.1205 18.6714 20.67 21.1079 25.7715 21.3745C25.6763 20.9176 25.6192 20.4418 25.6192 19.9659C25.6192 16.5775 28.3603 13.8174 31.7677 13.8174C33.538 13.8174 35.1369 14.5598 36.2601 15.759C37.6496 15.4925 38.9821 14.9785 40.1623 14.2742C39.7054 15.7019 38.7346 16.9012 37.4593 17.6625C38.6966 17.5294 39.8959 17.1866 40.9999 16.7108C40.1625 17.929 39.1154 19.014 37.9162 19.8897Z" fill="white"/>
<circle cx="25" cy="25" r="24" stroke="white" stroke-width="2"/>
</svg>
